# Blender v2.76 (sub 0) OBJ File: 'asteroid4.blend'
# www.blender.org
mtllib asteroid4.mtl
o Icosphere
v -0.111366 -1.783391 0.392401
v 1.586757 -1.029395 2.281432
v -0.012039 -0.537032 2.011207
v -1.868560 -0.387727 -0.784290
v -1.554469 -1.125833 -1.785900
v 0.339716 -1.089546 0.091708
v 0.514445 0.008769 1.578913
v -1.144555 1.215201 0.550451
v -0.765582 1.677612 -1.287335
v 0.279285 0.616888 -1.520483
v 1.860242 -0.037351 1.272158
v 0.326327 1.523886 -0.229617
v -0.162778 -1.280516 1.113395
v 0.837625 -1.672695 1.386756
v 0.711181 -1.025197 1.790989
v 1.349976 -1.708589 1.333671
v 0.202676 -2.114170 0.581529
v -0.871934 -1.137585 -0.058151
v -1.439569 -0.320250 0.607404
v -1.117050 -1.599351 -0.439377
v -1.298517 -0.624158 -1.384659
v -0.887772 -1.744408 -1.084594
v 1.760036 -0.441303 1.408306
v 1.603802 -0.756143 0.435567
v 0.674116 0.139229 2.379310
v 1.284315 -0.327954 1.999571
v -1.579871 0.554557 0.165850
v -1.184756 0.727602 1.501033
v -1.207646 0.462081 -1.692672
v -1.263043 0.436844 -0.883330
v 0.393107 -0.451191 -0.894038
v -0.852207 -0.179340 -1.498299
v 1.542316 -0.220352 1.268752
v 0.022060 1.120289 0.981364
v -1.101574 1.270826 -0.383481
v -0.270435 1.343449 -1.873782
v 1.208097 0.340980 -0.299194
v 0.161612 0.844110 0.831011
v 1.050301 0.675656 0.502473
v -0.414947 1.594356 0.098365
v 0.047607 2.108826 -1.308626
v 0.528453 1.387325 -0.955499
vn -0.431000 -0.754200 0.495300
vn 0.003300 -0.813200 0.581900
vn -0.718600 -0.593400 0.362600
vn -0.643600 -0.254300 0.721900
vn -0.646100 -0.190900 0.739000
vn 0.951600 -0.306900 -0.017800
vn -0.033300 -0.451500 0.891600
vn -0.955600 -0.004500 0.294800
vn -0.915500 0.178800 0.360400
vn 0.687100 -0.626300 -0.368300
vn 0.718000 0.502900 0.481200
vn -0.438200 -0.044100 0.897800
vn -0.786100 0.541500 -0.298100
vn 0.423700 -0.039400 -0.904900
vn 0.345200 -0.796200 -0.496900
vn 0.344500 0.702800 0.622400
vn -0.121400 0.848300 0.515500
vn -0.452400 0.864100 0.220700
vn 0.727300 0.237100 -0.644100
vn 0.725400 0.674200 -0.138700
vn 0.726300 0.683500 0.073700
vn 0.851600 0.521700 -0.050200
vn 0.802800 0.161400 -0.574100
vn 0.800700 0.588500 0.112200
vn 0.738800 0.173700 -0.651100
vn -0.360400 0.646400 -0.672600
vn 0.263000 0.875000 0.406400
vn -0.503600 0.851600 0.145800
vn -0.444800 0.895000 0.032800
vn 0.315500 0.775900 0.546300
vn 0.848400 0.508600 -0.146800
vn 0.902400 0.427700 0.052000
vn 0.346000 0.764600 0.543800
vn 0.358100 0.712600 0.603300
vn -0.305700 0.516300 0.800000
vn 0.927300 0.091500 -0.362800
vn 0.699600 -0.205900 -0.684200
vn 0.730500 -0.285900 -0.620200
vn 0.196200 -0.304800 -0.932000
vn 0.058100 -0.259900 -0.963900
vn -0.548800 0.437200 -0.712500
vn -0.929400 0.304800 -0.208300
vn -0.883300 0.354700 -0.306500
vn -0.833500 0.552400 -0.005500
vn -0.094500 0.887400 0.451200
vn -0.015700 0.815000 0.579300
vn 0.929400 0.286900 -0.232200
vn 0.278600 0.931100 0.235400
vn 0.570100 0.759600 0.313100
vn -0.216700 0.359600 0.907600
vn 0.305400 -0.457300 -0.835200
vn 0.379600 -0.244500 -0.892300
vn 0.605200 -0.216300 -0.766100
vn -0.932700 0.356800 -0.052700
vn -0.995700 0.064500 -0.066100
vn -0.603100 0.357200 -0.713300
vn -0.867500 0.456600 0.197500
vn -0.958500 -0.009900 0.284900
vn -0.678500 -0.374100 0.632200
vn 0.494400 0.836800 -0.235000
vn 0.211200 -0.435400 0.875100
vn -0.483500 0.138800 0.864300
vn 0.962500 -0.262200 -0.069700
vn 0.951000 -0.304500 -0.054200
vn 0.353800 -0.689900 -0.631600
vn 0.738100 -0.368800 -0.564900
vn -0.403800 -0.912800 0.061700
vn -0.645500 -0.761600 -0.058100
vn -0.915500 0.178900 0.360300
vn -0.912900 0.183600 0.364600
vn -0.516800 -0.841200 -0.159400
vn -0.690800 -0.680000 0.245900
vn -0.646700 -0.698500 0.306300
vn -0.629000 -0.543600 0.555700
vn 0.597000 -0.409600 -0.689800
vn -0.010700 -0.873200 0.487200
vn -0.684000 -0.259600 0.681700
vn -0.287000 -0.713600 0.639100
vn -0.412100 -0.539100 0.734600
vn -0.413600 -0.538900 0.733800
usemtl None
s off
f 1//1 14//1 13//1
f 2//2 14//2 16//2
f 1//3 13//3 18//3
f 1//4 18//4 20//4
f 1//5 20//5 17//5
f 2//6 16//6 23//6
f 3//7 15//7 25//7
f 4//8 19//8 27//8
f 5//9 21//9 29//9
f 6//10 22//10 31//10
f 2//11 23//11 26//11
f 3//12 25//12 28//12
f 4//13 27//13 30//13
f 5//14 29//14 32//14
f 6//15 31//15 24//15
f 7//16 33//16 38//16
f 8//17 34//17 40//17
f 9//18 35//18 41//18
f 10//19 36//19 42//19
f 11//20 37//20 39//20
f 39//21 42//21 12//21
f 39//22 37//22 42//22
f 37//23 10//23 42//23
f 42//24 41//24 12//24
f 42//25 36//25 41//25
f 36//26 9//26 41//26
f 41//27 40//27 12//27
f 41//28 35//28 40//28
f 35//29 8//29 40//29
f 40//30 38//30 12//30
f 40//31 34//31 38//31
f 34//32 7//32 38//32
f 38//33 39//33 12//33
f 38//34 33//34 39//34
f 33//35 11//35 39//35
f 24//36 37//36 11//36
f 24//37 31//37 37//37
f 31//38 10//38 37//38
f 32//39 36//39 10//39
f 32//40 29//40 36//40
f 29//41 9//41 36//41
f 30//42 35//42 9//42
f 30//43 27//43 35//43
f 27//44 8//44 35//44
f 28//45 34//45 8//45
f 28//46 25//46 34//46
f 25//47 7//47 34//47
f 26//48 33//48 7//48
f 26//49 23//49 33//49
f 23//50 11//50 33//50
f 31//51 32//51 10//51
f 31//52 22//52 32//52
f 22//53 5//53 32//53
f 29//54 30//54 9//54
f 29//55 21//55 30//55
f 21//56 4//56 30//56
f 27//57 28//57 8//57
f 27//58 19//58 28//58
f 19//59 3//59 28//59
f 25//60 26//60 7//60
f 25//61 15//61 26//61
f 15//62 2//62 26//62
f 23//63 24//63 11//63
f 23//64 16//64 24//64
f 16//65 6//65 24//65
f 17//66 22//66 6//66
f 17//67 20//67 22//67
f 20//68 5//68 22//68
f 20//69 21//69 5//69
f 20//70 18//70 21//70
f 18//71 4//71 21//71
f 18//72 19//72 4//72
f 18//73 13//73 19//73
f 13//74 3//74 19//74
f 16//75 17//75 6//75
f 16//76 14//76 17//76
f 14//77 1//77 17//77
f 13//78 15//78 3//78
f 13//79 14//79 15//79
f 14//80 2//80 15//80
