# Blender v2.76 (sub 0) OBJ File: 'asteroid5.blend'
# www.blender.org
mtllib asteroid5.mtl
o Icosphere
v 0.197017 -1.504780 -0.160914
v 1.503939 -0.513389 2.175384
v 0.293182 -1.016592 2.134857
v -3.045766 -1.091339 -0.905095
v -1.677071 -1.624621 -2.265460
v 0.783405 0.077744 -0.278680
v -0.144153 -0.199543 1.206096
v -1.326553 0.765779 0.731031
v -0.950197 1.580572 -0.630507
v 0.451649 0.993450 -2.168015
v 2.372436 0.824529 1.990790
v 0.107331 1.493396 0.013731
v -0.286600 -1.422076 0.779176
v 0.881818 -1.379489 0.655287
v 0.202714 -1.180740 0.753067
v 1.943187 -2.207504 1.338142
v 0.930644 -2.881602 0.721105
v -0.299179 -1.198942 0.239518
v -1.815484 -0.557538 0.509345
v -0.908068 -1.245735 -0.144911
v -1.125549 -0.888742 -1.584403
v -0.677682 -2.370455 -2.007512
v 1.436466 0.478690 0.312800
v 2.660776 -0.557077 -0.329131
v 1.034107 0.249251 2.780538
v 0.894691 0.206356 1.420979
v -1.526365 0.103682 0.492391
v -1.859994 0.774059 1.738062
v -1.572487 0.599906 -1.248022
v -1.530246 -0.144893 -0.019566
v 1.324849 0.131714 -1.561941
v -0.763613 -0.068802 -1.107818
v 1.709149 -0.144515 0.601041
v 0.383425 1.381095 0.532587
v -1.498193 0.468796 0.207566
v -0.496033 1.630603 -2.322732
v 1.706407 0.965810 -0.539286
v -0.531714 1.095783 0.940467
v 0.799659 1.021638 0.533546
v -0.701240 1.416743 0.483222
v 0.185701 2.200439 -1.453104
v 0.358980 2.006070 -0.683455
vn 0.048100 -0.992500 0.112000
vn -0.704700 -0.452700 0.546300
vn -0.655600 -0.703100 -0.275400
vn -0.200700 -0.882500 0.425300
vn 0.149500 0.588600 0.794500
vn 0.973700 0.213700 0.078500
vn 0.862200 -0.506600 0.003700
vn -0.768200 0.349700 0.536200
vn -0.522700 -0.334200 0.784300
vn 0.724800 -0.629800 0.279300
vn 0.437200 0.800300 0.410400
vn -0.367400 -0.242900 0.897800
vn -0.294600 0.860500 -0.415600
vn 0.438000 0.356800 -0.825100
vn -0.319600 -0.931400 -0.174000
vn 0.291000 0.275000 0.916400
vn -0.029600 0.380300 0.924400
vn 0.352000 0.446600 0.822600
vn 0.548100 0.706500 -0.447700
vn 0.096800 0.994800 0.030100
vn 0.080300 0.789000 0.609100
vn 0.529800 0.742900 0.409100
vn 0.579100 0.689900 -0.434400
vn -0.602300 0.731200 0.320300
vn 0.810100 -0.498700 -0.308300
vn -0.541500 0.832000 -0.120700
vn 0.168900 0.884300 0.435300
vn -0.751600 0.654900 -0.079200
vn -0.739500 0.660100 -0.132000
vn 0.214900 0.835000 0.506500
vn -0.000800 -0.818600 -0.574300
vn -0.316400 -0.280500 -0.906200
vn 0.199600 0.843100 0.499300
vn 0.294700 0.282700 0.912800
vn -0.634200 -0.458600 0.622500
vn 0.843100 0.501600 -0.193900
vn 0.725700 0.375200 -0.576800
vn 0.743500 0.354800 -0.566800
vn -0.232000 -0.541300 -0.808200
vn -0.295200 -0.524500 -0.798600
vn -0.771000 0.608200 -0.188900
vn -0.915700 0.180700 -0.359000
vn -0.998000 0.060100 -0.021600
vn -0.956900 0.220900 0.188500
vn -0.352000 0.915700 -0.194000
vn -0.000000 0.893200 0.449700
vn 0.772000 -0.449300 -0.449700
vn -0.203300 0.810800 -0.548900
vn -0.704700 -0.527700 -0.474200
vn 0.852200 0.139700 -0.504200
vn -0.104000 -0.640500 -0.760900
vn -0.231000 0.346700 -0.909100
vn 0.463400 0.337600 -0.819300
vn -0.880900 0.390700 0.267200
vn -0.957700 -0.259400 -0.124400
vn -0.254900 0.846100 -0.468100
vn -0.808700 0.399600 -0.431700
vn -0.837300 0.355400 -0.415500
vn -0.577700 -0.563900 0.590200
vn -0.365400 0.930800 0.008100
vn 0.906800 -0.413900 -0.079900
vn -0.749700 0.056500 0.659400
vn -0.451200 -0.790300 0.414600
vn 0.658600 0.373600 0.653200
vn -0.235500 -0.638100 -0.733000
vn 0.842500 -0.134300 -0.521700
vn -0.709000 -0.639100 0.298200
vn -0.616600 -0.705300 0.349600
vn -0.870100 0.431400 0.238400
vn -0.240700 0.932900 0.267700
vn 0.038400 -0.982100 -0.184400
vn -0.250600 -0.813400 0.525000
vn -0.417000 -0.843300 -0.339000
vn -0.499900 -0.747500 0.437400
vn 0.612100 -0.225600 -0.757900
vn -0.529900 0.019900 0.847800
vn -0.766300 0.003200 0.642500
vn 0.444300 -0.892600 0.076900
vn 0.108900 -0.113900 0.987500
vn -0.164400 -0.826600 0.538300
usemtl None
s off
f 1//1 14//1 13//1
f 2//2 14//2 16//2
f 1//3 13//3 18//3
f 1//4 18//4 20//4
f 1//5 20//5 17//5
f 2//6 16//6 23//6
f 3//7 15//7 25//7
f 4//8 19//8 27//8
f 5//9 21//9 29//9
f 6//10 22//10 31//10
f 2//11 23//11 26//11
f 3//12 25//12 28//12
f 4//13 27//13 30//13
f 5//14 29//14 32//14
f 6//15 31//15 24//15
f 7//16 33//16 38//16
f 8//17 34//17 40//17
f 9//18 35//18 41//18
f 10//19 36//19 42//19
f 11//20 37//20 39//20
f 39//21 42//21 12//21
f 39//22 37//22 42//22
f 37//23 10//23 42//23
f 42//24 41//24 12//24
f 42//25 36//25 41//25
f 36//26 9//26 41//26
f 41//27 40//27 12//27
f 41//28 35//28 40//28
f 35//29 8//29 40//29
f 40//30 38//30 12//30
f 40//31 34//31 38//31
f 34//32 7//32 38//32
f 38//33 39//33 12//33
f 38//34 33//34 39//34
f 33//35 11//35 39//35
f 24//36 37//36 11//36
f 24//37 31//37 37//37
f 31//38 10//38 37//38
f 32//39 36//39 10//39
f 32//40 29//40 36//40
f 29//41 9//41 36//41
f 30//42 35//42 9//42
f 30//43 27//43 35//43
f 27//44 8//44 35//44
f 28//45 34//45 8//45
f 28//46 25//46 34//46
f 25//47 7//47 34//47
f 26//48 33//48 7//48
f 26//49 23//49 33//49
f 23//50 11//50 33//50
f 31//51 32//51 10//51
f 31//52 22//52 32//52
f 22//53 5//53 32//53
f 29//54 30//54 9//54
f 29//55 21//55 30//55
f 21//56 4//56 30//56
f 27//57 28//57 8//57
f 27//58 19//58 28//58
f 19//59 3//59 28//59
f 25//60 26//60 7//60
f 25//61 15//61 26//61
f 15//62 2//62 26//62
f 23//63 24//63 11//63
f 23//64 16//64 24//64
f 16//65 6//65 24//65
f 17//66 22//66 6//66
f 17//67 20//67 22//67
f 20//68 5//68 22//68
f 20//69 21//69 5//69
f 20//70 18//70 21//70
f 18//71 4//71 21//71
f 18//72 19//72 4//72
f 18//73 13//73 19//73
f 13//74 3//74 19//74
f 16//75 17//75 6//75
f 16//76 14//76 17//76
f 14//77 1//77 17//77
f 13//78 15//78 3//78
f 13//79 14//79 15//79
f 14//80 2//80 15//80
