# Blender v2.76 (sub 0) OBJ File: 'asteroid3.blend'
# www.blender.org
mtllib asteroid3.mtl
o Cube_Cube.001
v -0.483913 0.774906 0.452655
v 0.622995 0.365080 1.511037
v 0.809573 -0.610739 -0.057304
v -0.771005 -0.790338 -0.749605
v -1.090756 -0.712840 0.011810
v -0.620365 -0.057372 1.231757
v 0.191459 -0.911414 0.277011
v -0.476162 -1.149366 0.043525
v -0.127780 0.958188 -0.675608
v -0.067632 0.151430 -0.810250
v 1.017715 -0.103040 0.913507
v 0.193317 0.841104 -0.026377
v 1.098819 -0.217345 0.104195
v 1.028207 -0.403296 0.595795
v -0.103685 -0.800357 -0.569740
v -0.886901 -1.007413 -0.036337
v -0.844752 -0.056037 0.495988
v -0.238653 -0.807518 0.872069
v -0.483870 -0.870693 0.542860
v 0.156015 0.288282 1.582856
v 0.556868 -0.337108 1.158435
v -0.625153 0.629914 1.086326
v -0.633257 0.086157 -0.638618
v -0.567196 0.288836 -0.078199
v 0.492846 -0.190517 -0.507584
v 0.112675 0.859710 0.920524
v 0.760337 0.199498 -0.049480
v 0.234403 0.510053 0.757253
v 0.603196 0.281131 0.512984
v -0.100258 0.927783 0.115266
v 0.361999 0.777855 -0.505237
vn -0.166100 -0.493800 0.853500
vn -0.979900 0.167700 -0.108200
vn 0.508800 -0.421100 -0.750900
vn 0.359400 -0.843000 0.400300
vn -0.470600 0.179500 0.863900
vn 0.687800 -0.222000 -0.691100
vn -0.251600 0.956600 0.147400
vn 0.641800 0.763800 0.068400
vn 0.715300 0.679800 0.162200
vn 0.769000 0.627200 0.123800
vn 0.676000 -0.108800 -0.728800
vn -0.301900 0.135000 -0.943700
vn 0.346100 0.938200 -0.002000
vn 0.294800 0.955200 0.026500
vn -0.749200 -0.297800 0.591600
vn 0.412200 0.846800 0.336100
vn 0.892000 0.404700 -0.201600
vn 0.827200 0.447000 -0.340500
vn 0.631500 0.725600 0.273400
vn 0.820300 -0.563900 -0.095500
vn 0.778200 0.627900 -0.010700
vn 0.682300 0.309900 -0.662200
vn 0.610400 0.390700 -0.689000
vn -0.913400 0.390700 -0.114200
vn -0.428400 -0.426700 0.796500
vn -0.901300 0.380600 -0.207100
vn -0.646000 0.610700 -0.457900
vn -0.260600 0.952100 0.159800
vn -0.087100 0.751500 0.654000
vn -0.023800 0.756200 0.653900
vn 0.138500 -0.863900 0.484300
vn 0.483700 -0.867800 0.113700
vn -0.368600 -0.814100 0.448700
vn -0.880900 0.446200 -0.157800
vn -0.864000 0.497500 -0.078100
vn -0.970300 0.240200 0.027500
vn -0.204100 0.018700 -0.978800
vn -0.813600 0.579200 0.050600
vn 0.381600 0.179800 -0.906700
vn -0.955000 0.055000 0.291400
vn 0.208000 -0.454500 0.866100
vn 0.025000 -0.550300 0.834600
vn 0.353900 -0.843900 0.403200
vn -0.600800 -0.573000 0.557500
vn 0.321000 -0.918200 -0.232300
vn 0.011600 -0.983600 0.180100
vn 0.592100 -0.575800 0.563800
vn 0.581400 -0.408200 0.703800
vn -0.886100 -0.377000 0.269600
vn 0.590900 0.792900 0.149000
vn 0.628300 0.757300 -0.178200
vn 0.105900 -0.890500 -0.442500
vn 0.990400 -0.082800 0.110900
vn -0.253500 -0.913200 -0.319100
vn 0.402700 -0.878900 -0.255600
vn -0.303900 0.166500 -0.938000
vn 0.342400 -0.242400 -0.907800
vn 0.248800 -0.246100 -0.936800
usemtl None
s off
f 6//1 18//1 20//1
f 4//2 16//2 23//2
f 3//3 15//3 25//3
f 7//4 14//4 21//4
f 6//5 20//5 22//5
f 3//6 25//6 13//6
f 1//7 26//7 30//7
f 11//8 27//8 29//8
f 29//9 31//9 12//9
f 29//10 27//10 31//10
f 27//11 10//11 31//11
f 10//12 23//12 9//12
f 31//13 9//13 12//13
f 9//14 30//14 12//14
f 16//15 19//15 17//15
f 30//16 28//16 12//16
f 30//17 26//17 28//17
f 26//18 2//18 28//18
f 28//19 29//19 12//19
f 14//20 3//20 13//20
f 13//21 27//21 11//21
f 13//22 25//22 27//22
f 25//23 10//23 27//23
f 17//24 22//24 1//24
f 16//25 17//25 5//25
f 17//26 1//26 24//26
f 24//27 1//27 30//27
f 22//28 26//28 1//28
f 22//29 20//29 26//29
f 20//30 2//30 26//30
f 8//31 7//31 19//31
f 7//32 3//32 14//32
f 8//33 19//33 16//33
f 5//34 17//34 24//34
f 23//35 24//35 9//35
f 23//36 16//36 24//36
f 16//37 5//37 24//37
f 9//38 24//38 30//38
f 10//39 9//39 31//39
f 17//40 6//40 22//40
f 20//41 21//41 2//41
f 20//42 18//42 21//42
f 18//43 7//43 21//43
f 19//44 18//44 6//44
f 7//45 15//45 3//45
f 19//46 7//46 18//46
f 21//47 14//47 11//47
f 21//48 11//48 2//48
f 19//49 6//49 17//49
f 28//50 11//50 29//50
f 2//51 11//51 28//51
f 8//52 4//52 15//52
f 14//53 13//53 11//53
f 8//54 16//54 4//54
f 7//55 8//55 15//55
f 4//56 23//56 10//56
f 25//57 15//57 10//57
f 15//58 4//58 10//58
